<svg width="3884" height="707" viewBox="0 0 3884 707" fill="none" xmlns="http://www.w3.org/2000/svg">
<mask id="mask0_309_513" style="mask-type:alpha" maskUnits="userSpaceOnUse" x="0" y="0" width="3884" height="707">
<path d="M1125.69 619.075V87.9922H1213.88V317.861C1237 278.601 1284.72 255.046 1338.94 255.046C1440.87 255.046 1503.06 333.565 1503.06 444.934C1503.06 556.303 1435.82 628.37 1333.17 628.37C1279.67 628.37 1234.11 604.815 1213.16 564.112L1207.39 619.075H1125.69ZM1315.1 548.409C1377.28 548.409 1414.15 504.141 1414.15 441.326C1414.15 378.511 1377.28 333.522 1315.1 333.522C1252.91 333.522 1214.6 377.79 1214.6 441.326C1214.6 504.862 1254.35 548.409 1315.1 548.409Z" fill="#F7F4F4"/>
<path d="M1534.16 442.759C1534.16 332.111 1607.17 255.715 1711.99 255.715C1816.81 255.715 1886.93 326.382 1886.93 436.308V462.707L1617.98 463.428C1624.47 525.522 1657.73 556.929 1716.31 556.929C1764.76 556.929 1796.57 538.382 1806.67 504.81H1888.37C1873.19 581.886 1808.11 628.318 1714.87 628.318C1608.61 628.318 1534.12 551.921 1534.12 442.717L1534.16 442.759ZM1620.19 407.786H1799.5C1799.5 359.232 1765.52 327.103 1712.75 327.103C1659.98 327.103 1628.88 354.945 1620.23 407.786H1620.19Z" fill="#F7F4F4"/>
<path d="M1941.19 619.075V87.9922H2028.66V414.205L2167.46 266.463H2278.09L2142.18 406.353L2275.21 619.075H2173.99L2080.75 470.611L2028.7 524.131V619.075H1941.23H1941.19Z" fill="#F7F4F4"/>
<path d="M2641 266.457V619.069H2559.3L2552.81 571.958C2531.13 605.488 2484.85 628.364 2437.13 628.364C2354.7 628.364 2306.26 573.401 2306.26 487.031V266.457H2394.45V456.345C2394.45 523.446 2421.22 550.567 2470.34 550.567C2526 550.567 2552.76 518.438 2552.76 451.337V266.457H2640.96H2641Z" fill="#F7F4F4"/>
<path d="M2714.05 619.075V87.9922H2802.24V317.861C2825.36 278.601 2873.08 255.046 2927.3 255.046C3029.23 255.046 3091.42 333.565 3091.42 444.934C3091.42 556.303 3024.18 628.37 2921.53 628.37C2868.03 628.37 2822.47 604.815 2801.52 564.112L2795.75 619.075H2714.05ZM2903.46 548.409C2965.64 548.409 3002.51 504.141 3002.51 441.326C3002.51 378.511 2965.64 333.522 2903.46 333.522C2841.27 333.522 2802.96 377.79 2802.96 441.326C2802.96 504.862 2842.71 548.409 2903.46 548.409Z" fill="#F7F4F4"/>
<path d="M3122.51 442.759C3122.51 332.111 3195.52 255.715 3300.34 255.715C3405.16 255.715 3475.28 326.382 3475.28 436.308V462.707L3206.33 463.428C3212.82 525.522 3246.08 556.929 3304.67 556.929C3353.11 556.929 3384.93 538.382 3395.02 504.81H3476.72C3461.54 581.886 3396.46 628.318 3303.22 628.318C3196.96 628.318 3122.47 551.921 3122.47 442.717L3122.51 442.759ZM3208.54 407.786H3387.85C3387.85 359.232 3353.87 327.103 3301.1 327.103C3248.33 327.103 3217.24 354.945 3208.58 407.786H3208.54Z" fill="#F7F4F4"/>
<path d="M3507.1 444.17C3507.1 334.244 3572.17 255.725 3679.88 255.725C3729.77 255.725 3773.88 276.437 3796.28 311.41V87.9922H3883.75V619.075H3802.77L3797 564.112C3775.33 604.815 3729.05 628.37 3674.83 628.37C3571.45 628.37 3507.1 553.417 3507.1 444.212V444.17ZM3795.56 441.326C3795.56 377.79 3755.81 333.522 3694.35 333.522C3632.88 333.522 3595.29 378.511 3595.29 441.326C3595.29 504.141 3632.88 548.409 3694.35 548.409C3755.81 548.409 3795.56 504.862 3795.56 441.326Z" fill="#F7F4F4"/>
<path d="M0.552442 275.092L255.254 0.46875H419.475L168.895 280.624L431.883 706.585H268.118L0.53125 275.092" fill="#F7F4F4"/>
<path d="M950.736 431.961L696.034 706.585H531.803L782.383 426.43L519.395 0.46875H683.17L950.746 431.961" fill="#F7F4F4"/>
</mask>
<g mask="url(#mask0_309_513)">
<path d="M421.962 873.797L3460.4 873.797C3747.75 873.797 3980.7 640.865 3980.7 353.528C3980.7 66.1914 3747.75 -166.741 3460.4 -166.741L421.962 -166.741C134.613 -166.741 -98.329 66.191 -98.3291 353.528C-98.3291 640.864 134.613 873.797 421.962 873.797Z" fill="url(#paint0_linear_309_513)"/>
</g>
<defs>
<linearGradient id="paint0_linear_309_513" x1="3980.7" y1="353.506" x2="-98.3723" y2="353.506" gradientUnits="userSpaceOnUse">
<stop stop-color="#FF8512"/>
<stop offset="1" stop-color="#FE2C59"/>
</linearGradient>
</defs>
</svg>
